<svg width="26" height="26" viewBox="0 0 26 26" fill="none" xmlns="http://www.w3.org/2000/svg">
<path d="M0.933333 16.5333C0.666667 16.5333 0.444444 16.4444 0.266667 16.2667C0.0888889 16.0889 0 15.8667 0 15.6C0 15.3333 0.0888889 15.1111 0.266667 14.9333C0.444444 14.7556 0.666667 14.6667 0.933333 14.6667C1.2 14.6667 1.42222 14.7556 1.6 14.9333C1.77778 15.1111 1.86667 15.3333 1.86667 15.6C1.86667 15.8667 1.77778 16.0889 1.6 16.2667C1.42222 16.4444 1.2 16.5333 0.933333 16.5333ZM0.933333 11.2C0.666667 11.2 0.444444 11.1111 0.266667 10.9333C0.0888889 10.7556 0 10.5333 0 10.2667C0 10 0.0888889 9.77778 0.266667 9.6C0.444444 9.42222 0.666667 9.33333 0.933333 9.33333C1.2 9.33333 1.42222 9.42222 1.6 9.6C1.77778 9.77778 1.86667 10 1.86667 10.2667C1.86667 10.5333 1.77778 10.7556 1.6 10.9333C1.42222 11.1111 1.2 11.2 0.933333 11.2ZM4.93333 22.5333C4.48889 22.5333 4.11111 22.3778 3.8 22.0667C3.48889 21.7556 3.33333 21.3778 3.33333 20.9333C3.33333 20.4889 3.48889 20.1111 3.8 19.8C4.11111 19.4889 4.48889 19.3333 4.93333 19.3333C5.37778 19.3333 5.75556 19.4889 6.06667 19.8C6.37778 20.1111 6.53333 20.4889 6.53333 20.9333C6.53333 21.3778 6.37778 21.7556 6.06667 22.0667C5.75556 22.3778 5.37778 22.5333 4.93333 22.5333ZM4.93333 17.2C4.48889 17.2 4.11111 17.0444 3.8 16.7333C3.48889 16.4222 3.33333 16.0444 3.33333 15.6C3.33333 15.1556 3.48889 14.7778 3.8 14.4667C4.11111 14.1556 4.48889 14 4.93333 14C5.37778 14 5.75556 14.1556 6.06667 14.4667C6.37778 14.7778 6.53333 15.1556 6.53333 15.6C6.53333 16.0444 6.37778 16.4222 6.06667 16.7333C5.75556 17.0444 5.37778 17.2 4.93333 17.2ZM4.93333 11.8667C4.48889 11.8667 4.11111 11.7111 3.8 11.4C3.48889 11.0889 3.33333 10.7111 3.33333 10.2667C3.33333 9.82222 3.48889 9.44444 3.8 9.13333C4.11111 8.82222 4.48889 8.66667 4.93333 8.66667C5.37778 8.66667 5.75556 8.82222 6.06667 9.13333C6.37778 9.44444 6.53333 9.82222 6.53333 10.2667C6.53333 10.7111 6.37778 11.0889 6.06667 11.4C5.75556 11.7111 5.37778 11.8667 4.93333 11.8667ZM4.93333 6.53333C4.48889 6.53333 4.11111 6.37778 3.8 6.06667C3.48889 5.75556 3.33333 5.37778 3.33333 4.93333C3.33333 4.48889 3.48889 4.11111 3.8 3.8C4.11111 3.48889 4.48889 3.33333 4.93333 3.33333C5.37778 3.33333 5.75556 3.48889 6.06667 3.8C6.37778 4.11111 6.53333 4.48889 6.53333 4.93333C6.53333 5.37778 6.37778 5.75556 6.06667 6.06667C5.75556 6.37778 5.37778 6.53333 4.93333 6.53333ZM10.2667 17.8667C9.62222 17.8667 9.08333 17.65 8.65 17.2167C8.21667 16.7833 8 16.2444 8 15.6C8 14.9556 8.21667 14.4167 8.65 13.9833C9.08333 13.55 9.62222 13.3333 10.2667 13.3333C10.9111 13.3333 11.45 13.55 11.8833 13.9833C12.3167 14.4167 12.5333 14.9556 12.5333 15.6C12.5333 16.2444 12.3167 16.7833 11.8833 17.2167C11.45 17.65 10.9111 17.8667 10.2667 17.8667ZM10.2667 12.5333C9.62222 12.5333 9.08333 12.3167 8.65 11.8833C8.21667 11.45 8 10.9111 8 10.2667C8 9.62222 8.21667 9.08333 8.65 8.65C9.08333 8.21667 9.62222 8 10.2667 8C10.9111 8 11.45 8.21667 11.8833 8.65C12.3167 9.08333 12.5333 9.62222 12.5333 10.2667C12.5333 10.9111 12.3167 11.45 11.8833 11.8833C11.45 12.3167 10.9111 12.5333 10.2667 12.5333ZM10.2667 22.5333C9.82222 22.5333 9.44444 22.3778 9.13333 22.0667C8.82222 21.7556 8.66667 21.3778 8.66667 20.9333C8.66667 20.4889 8.82222 20.1111 9.13333 19.8C9.44444 19.4889 9.82222 19.3333 10.2667 19.3333C10.7111 19.3333 11.0889 19.4889 11.4 19.8C11.7111 20.1111 11.8667 20.4889 11.8667 20.9333C11.8667 21.3778 11.7111 21.7556 11.4 22.0667C11.0889 22.3778 10.7111 22.5333 10.2667 22.5333ZM10.2667 6.53333C9.82222 6.53333 9.44444 6.37778 9.13333 6.06667C8.82222 5.75556 8.66667 5.37778 8.66667 4.93333C8.66667 4.48889 8.82222 4.11111 9.13333 3.8C9.44444 3.48889 9.82222 3.33333 10.2667 3.33333C10.7111 3.33333 11.0889 3.48889 11.4 3.8C11.7111 4.11111 11.8667 4.48889 11.8667 4.93333C11.8667 5.37778 11.7111 5.75556 11.4 6.06667C11.0889 6.37778 10.7111 6.53333 10.2667 6.53333ZM10.2667 25.8667C10 25.8667 9.77778 25.7778 9.6 25.6C9.42222 25.4222 9.33333 25.2 9.33333 24.9333C9.33333 24.6667 9.42222 24.4444 9.6 24.2667C9.77778 24.0889 10 24 10.2667 24C10.5333 24 10.7556 24.0889 10.9333 24.2667C11.1111 24.4444 11.2 24.6667 11.2 24.9333C11.2 25.2 11.1111 25.4222 10.9333 25.6C10.7556 25.7778 10.5333 25.8667 10.2667 25.8667ZM10.2667 1.86667C10 1.86667 9.77778 1.77778 9.6 1.6C9.42222 1.42222 9.33333 1.2 9.33333 0.933333C9.33333 0.666667 9.42222 0.444444 9.6 0.266667C9.77778 0.0888889 10 0 10.2667 0C10.5333 0 10.7556 0.0888889 10.9333 0.266667C11.1111 0.444444 11.2 0.666667 11.2 0.933333C11.2 1.2 11.1111 1.42222 10.9333 1.6C10.7556 1.77778 10.5333 1.86667 10.2667 1.86667ZM15.6 17.8667C14.9556 17.8667 14.4167 17.65 13.9833 17.2167C13.55 16.7833 13.3333 16.2444 13.3333 15.6C13.3333 14.9556 13.55 14.4167 13.9833 13.9833C14.4167 13.55 14.9556 13.3333 15.6 13.3333C16.2444 13.3333 16.7833 13.55 17.2167 13.9833C17.65 14.4167 17.8667 14.9556 17.8667 15.6C17.8667 16.2444 17.65 16.7833 17.2167 17.2167C16.7833 17.65 16.2444 17.8667 15.6 17.8667ZM15.6 12.5333C14.9556 12.5333 14.4167 12.3167 13.9833 11.8833C13.55 11.45 13.3333 10.9111 13.3333 10.2667C13.3333 9.62222 13.55 9.08333 13.9833 8.65C14.4167 8.21667 14.9556 8 15.6 8C16.2444 8 16.7833 8.21667 17.2167 8.65C17.65 9.08333 17.8667 9.62222 17.8667 10.2667C17.8667 10.9111 17.65 11.45 17.2167 11.8833C16.7833 12.3167 16.2444 12.5333 15.6 12.5333ZM15.6 22.5333C15.1556 22.5333 14.7778 22.3778 14.4667 22.0667C14.1556 21.7556 14 21.3778 14 20.9333C14 20.4889 14.1556 20.1111 14.4667 19.8C14.7778 19.4889 15.1556 19.3333 15.6 19.3333C16.0444 19.3333 16.4222 19.4889 16.7333 19.8C17.0444 20.1111 17.2 20.4889 17.2 20.9333C17.2 21.3778 17.0444 21.7556 16.7333 22.0667C16.4222 22.3778 16.0444 22.5333 15.6 22.5333ZM15.6 6.53333C15.1556 6.53333 14.7778 6.37778 14.4667 6.06667C14.1556 5.75556 14 5.37778 14 4.93333C14 4.48889 14.1556 4.11111 14.4667 3.8C14.7778 3.48889 15.1556 3.33333 15.6 3.33333C16.0444 3.33333 16.4222 3.48889 16.7333 3.8C17.0444 4.11111 17.2 4.48889 17.2 4.93333C17.2 5.37778 17.0444 5.75556 16.7333 6.06667C16.4222 6.37778 16.0444 6.53333 15.6 6.53333ZM15.6 25.8667C15.3333 25.8667 15.1111 25.7778 14.9333 25.6C14.7556 25.4222 14.6667 25.2 14.6667 24.9333C14.6667 24.6667 14.7556 24.4444 14.9333 24.2667C15.1111 24.0889 15.3333 24 15.6 24C15.8667 24 16.0889 24.0889 16.2667 24.2667C16.4444 24.4444 16.5333 24.6667 16.5333 24.9333C16.5333 25.2 16.4444 25.4222 16.2667 25.6C16.0889 25.7778 15.8667 25.8667 15.6 25.8667ZM15.6 1.86667C15.3333 1.86667 15.1111 1.77778 14.9333 1.6C14.7556 1.42222 14.6667 1.2 14.6667 0.933333C14.6667 0.666667 14.7556 0.444444 14.9333 0.266667C15.1111 0.0888889 15.3333 0 15.6 0C15.8667 0 16.0889 0.0888889 16.2667 0.266667C16.4444 0.444444 16.5333 0.666667 16.5333 0.933333C16.5333 1.2 16.4444 1.42222 16.2667 1.6C16.0889 1.77778 15.8667 1.86667 15.6 1.86667ZM20.9333 22.5333C20.4889 22.5333 20.1111 22.3778 19.8 22.0667C19.4889 21.7556 19.3333 21.3778 19.3333 20.9333C19.3333 20.4889 19.4889 20.1111 19.8 19.8C20.1111 19.4889 20.4889 19.3333 20.9333 19.3333C21.3778 19.3333 21.7556 19.4889 22.0667 19.8C22.3778 20.1111 22.5333 20.4889 22.5333 20.9333C22.5333 21.3778 22.3778 21.7556 22.0667 22.0667C21.7556 22.3778 21.3778 22.5333 20.9333 22.5333ZM20.9333 17.2C20.4889 17.2 20.1111 17.0444 19.8 16.7333C19.4889 16.4222 19.3333 16.0444 19.3333 15.6C19.3333 15.1556 19.4889 14.7778 19.8 14.4667C20.1111 14.1556 20.4889 14 20.9333 14C21.3778 14 21.7556 14.1556 22.0667 14.4667C22.3778 14.7778 22.5333 15.1556 22.5333 15.6C22.5333 16.0444 22.3778 16.4222 22.0667 16.7333C21.7556 17.0444 21.3778 17.2 20.9333 17.2ZM20.9333 11.8667C20.4889 11.8667 20.1111 11.7111 19.8 11.4C19.4889 11.0889 19.3333 10.7111 19.3333 10.2667C19.3333 9.82222 19.4889 9.44444 19.8 9.13333C20.1111 8.82222 20.4889 8.66667 20.9333 8.66667C21.3778 8.66667 21.7556 8.82222 22.0667 9.13333C22.3778 9.44444 22.5333 9.82222 22.5333 10.2667C22.5333 10.7111 22.3778 11.0889 22.0667 11.4C21.7556 11.7111 21.3778 11.8667 20.9333 11.8667ZM20.9333 6.53333C20.4889 6.53333 20.1111 6.37778 19.8 6.06667C19.4889 5.75556 19.3333 5.37778 19.3333 4.93333C19.3333 4.48889 19.4889 4.11111 19.8 3.8C20.1111 3.48889 20.4889 3.33333 20.9333 3.33333C21.3778 3.33333 21.7556 3.48889 22.0667 3.8C22.3778 4.11111 22.5333 4.48889 22.5333 4.93333C22.5333 5.37778 22.3778 5.75556 22.0667 6.06667C21.7556 6.37778 21.3778 6.53333 20.9333 6.53333ZM24.9333 16.5333C24.6667 16.5333 24.4444 16.4444 24.2667 16.2667C24.0889 16.0889 24 15.8667 24 15.6C24 15.3333 24.0889 15.1111 24.2667 14.9333C24.4444 14.7556 24.6667 14.6667 24.9333 14.6667C25.2 14.6667 25.4222 14.7556 25.6 14.9333C25.7778 15.1111 25.8667 15.3333 25.8667 15.6C25.8667 15.8667 25.7778 16.0889 25.6 16.2667C25.4222 16.4444 25.2 16.5333 24.9333 16.5333ZM24.9333 11.2C24.6667 11.2 24.4444 11.1111 24.2667 10.9333C24.0889 10.7556 24 10.5333 24 10.2667C24 10 24.0889 9.77778 24.2667 9.6C24.4444 9.42222 24.6667 9.33333 24.9333 9.33333C25.2 9.33333 25.4222 9.42222 25.6 9.6C25.7778 9.77778 25.8667 10 25.8667 10.2667C25.8667 10.5333 25.7778 10.7556 25.6 10.9333C25.4222 11.1111 25.2 11.2 24.9333 11.2Z" fill="black"/>
</svg>
